<?xml version="1.0" standalone="no"?>
<!DOCTYPE svg PUBLIC "-//W3C//DTD SVG 20010904//EN"
 "http://www.w3.org/TR/2001/REC-SVG-20010904/DTD/svg10.dtd">
<svg version="1.0" xmlns="http://www.w3.org/2000/svg"
 width="622.000000pt" height="600.000000pt" viewBox="0 0 622.000000 600.000000"
 preserveAspectRatio="xMidYMid meet">
<metadata>
Created by potrace 1.16, written by Peter Selinger 2001-2019
</metadata>
<g transform="translate(0.000000,600.000000) scale(0.100000,-0.100000)"
fill="#000000" stroke="none">
<path d="M400 5868 c0 -6 37 -50 83 -97 195 -202 998 -1041 1045 -1091 28 -30
47 -56 43 -58 -4 -1 -204 47 -445 108 -432 108 -476 118 -476 102 0 -4 69 -62
153 -127 420 -328 757 -605 757 -624 0 -4 -75 -16 -167 -25 -191 -20 -419 -52
-433 -61 -16 -10 -7 -18 128 -122 147 -112 394 -317 435 -361 l28 -30 -118
-62 c-279 -148 -577 -330 -806 -492 -237 -169 -516 -406 -502 -427 3 -6 19
-11 35 -11 37 0 312 -54 410 -81 41 -11 139 -42 218 -70 580 -200 1146 -562
1659 -1062 89 -87 167 -156 173 -152 5 3 10 31 10 61 0 31 4 54 8 52 5 -2 54
-55 108 -118 122 -141 367 -386 534 -533 220 -193 563 -458 597 -461 10 -1 14
40 18 174 7 298 40 500 120 739 64 190 151 351 247 454 43 47 44 47 203 88 88
22 232 60 320 84 88 24 230 62 315 85 408 110 770 213 903 256 125 41 128 70
16 209 -135 168 -312 356 -577 614 l-253 246 30 59 c37 69 39 117 11 207 -39
129 -179 301 -394 486 -629 540 -1964 1278 -3388 1872 -140 58 -178 70 -178
54 0 -5 68 -80 150 -167 83 -88 149 -161 147 -163 -2 -2 -168 62 -368 143
-200 80 -458 184 -573 230 -114 46 -212 84 -217 84 -5 0 -9 -5 -9 -12z m3299
-2665 c24 -30 20 -58 -11 -85 -44 -39 -120 -9 -120 47 0 63 91 89 131 38z
m1391 -294 c177 -151 405 -366 515 -485 145 -158 149 -163 143 -169 -3 -3
-129 19 -279 51 -151 31 -402 82 -559 115 -157 32 -373 77 -480 99 -107 22
-199 40 -205 40 -17 0 22 23 315 185 157 87 319 177 360 201 41 24 80 44 85
44 6 0 53 -37 105 -81z m-228 -715 c246 -21 445 -40 442 -43 -2 -2 -50 -11
-107 -18 -147 -19 -755 -93 -765 -93 -5 0 -25 24 -45 53 -20 28 -53 74 -74
101 l-37 49 69 -5 c39 -3 271 -23 517 -44z"/>
</g>
</svg>
